<?xml version="1.0" standalone="no"?>
<!DOCTYPE svg PUBLIC "-//W3C//DTD SVG 20010904//EN"
 "http://www.w3.org/TR/2001/REC-SVG-20010904/DTD/svg10.dtd">
<svg version="1.0" xmlns="http://www.w3.org/2000/svg"
 width="200.000000pt" height="200.000000pt" viewBox="0 0 200.000000 200.000000"
 preserveAspectRatio="xMidYMid meet">
<metadata>
Created by potrace 1.11, written by Peter Selinger 2001-2013
</metadata>
<g transform="translate(0.000000,200.000000) scale(0.100000,-0.100000)"
fill="#000000" stroke="none">
<path d="M170 1304 l0 -235 48 3 47 3 0 158 c0 86 2 157 5 156 3 0 52 -72 109
-160 l104 -159 53 0 54 0 0 235 0 235 -50 0 -49 0 -3 -157 -3 -157 -102 157
-102 157 -56 0 -55 0 0 -236z"/>
<path d="M700 1500 l0 -40 135 0 135 0 0 40 0 40 -135 0 -135 0 0 -40z"/>
<path d="M1274 1470 c-25 -38 -47 -70 -49 -70 -3 0 -23 29 -46 65 l-41 65 -49
0 c-57 0 -58 6 17 -112 24 -37 40 -69 36 -71 -4 -2 -105 -3 -224 -3 l-218 1 0
-37 0 -38 225 0 c124 0 225 -2 225 -5 0 -2 -25 -42 -55 -89 -30 -46 -55 -87
-55 -90 0 -3 22 -6 49 -6 l49 0 44 71 44 70 45 -72 44 -71 53 -2 c28 0 52 2
52 6 0 4 -19 38 -43 75 -24 38 -55 86 -69 109 l-26 40 69 110 c38 60 69 112
69 117 0 4 -23 7 -50 7 l-50 0 -46 -70z"/>
<path d="M1482 1498 l3 -43 68 -3 67 -3 0 -184 0 -185 50 0 50 0 0 185 0 185
48 0 c80 0 92 7 92 51 l0 39 -191 0 -190 0 3 -42z"/>
<path d="M700 1118 l0 -43 135 3 135 3 0 40 0 39 -135 0 -135 0 0 -42z"/>
<path d="M1624 921 c-2 -2 -4 -107 -4 -233 l0 -228 140 0 140 0 0 45 0 45 -85
0 -85 0 0 189 0 190 -51 -2 c-28 -1 -52 -4 -55 -6z"/>
<path d="M120 690 l0 -230 140 0 140 0 0 40 0 39 -87 3 -88 3 -3 188 -2 187
-50 0 -50 0 0 -230z"/>
<path d="M470 880 l0 -40 135 0 135 0 0 40 0 40 -135 0 -135 0 0 -40z"/>
<path d="M774 903 c4 -10 44 -114 89 -230 l82 -213 56 0 56 0 81 213 c45 116
84 220 88 230 5 15 -1 17 -48 17 l-55 0 -59 -155 c-52 -135 -74 -179 -74 -145
0 5 -25 75 -56 155 l-57 145 -54 0 c-48 0 -54 -2 -49 -17z"/>
<path d="M1276 883 l1 -38 132 -3 131 -3 0 41 0 40 -132 0 -133 0 1 -37z"/>
<path d="M470 690 l0 -40 135 0 135 0 0 40 0 40 -135 0 -135 0 0 -40z"/>
<path d="M1270 690 l0 -40 135 0 135 0 0 40 0 40 -135 0 -135 0 0 -40z"/>
<path d="M470 500 l0 -40 130 0 130 0 0 40 0 40 -130 0 -130 0 0 -40z"/>
<path d="M1270 500 l0 -40 135 0 135 0 0 40 0 40 -135 0 -135 0 0 -40z"/>
</g>
</svg>
